<mxfile host="65bd71144e">
    <diagram id="RbBf5CJ_m90oZY9ZwM7Y" name="Page-1">
        <mxGraphModel dx="1154" dy="656" grid="1" gridSize="10" guides="1" tooltips="1" connect="1" arrows="1" fold="1" page="1" pageScale="1" pageWidth="850" pageHeight="1100" math="1" shadow="0">
            <root>
                <mxCell id="0"/>
                <mxCell id="1" parent="0"/>
                <mxCell id="45" value="" style="rounded=0;whiteSpace=wrap;html=1;fontColor=#000000;" vertex="1" parent="1">
                    <mxGeometry x="480" y="240" width="120" height="220" as="geometry"/>
                </mxCell>
                <mxCell id="2" value="Parser" style="rounded=0;whiteSpace=wrap;html=1;fontColor=#000000;" vertex="1" parent="1">
                    <mxGeometry x="40" y="340" width="70" height="60" as="geometry"/>
                </mxCell>
                <mxCell id="14" style="edgeStyle=none;html=1;exitX=1;exitY=0.5;exitDx=0;exitDy=0;entryX=0;entryY=0.5;entryDx=0;entryDy=0;fontColor=#000000;" edge="1" parent="1" source="3" target="5">
                    <mxGeometry relative="1" as="geometry"/>
                </mxCell>
                <mxCell id="18" style="edgeStyle=none;html=1;exitX=0.25;exitY=0;exitDx=0;exitDy=0;fontColor=#000000;" edge="1" parent="1" source="3">
                    <mxGeometry relative="1" as="geometry">
                        <mxPoint x="270" y="320" as="targetPoint"/>
                    </mxGeometry>
                </mxCell>
                <mxCell id="3" value="Logical&lt;br&gt;Planner" style="rounded=0;whiteSpace=wrap;html=1;fontColor=#000000;" vertex="1" parent="1">
                    <mxGeometry x="250" y="340" width="80" height="60" as="geometry"/>
                </mxCell>
                <mxCell id="15" style="edgeStyle=none;html=1;exitX=1;exitY=0.5;exitDx=0;exitDy=0;entryX=0;entryY=0.25;entryDx=0;entryDy=0;fontColor=#000000;" edge="1" parent="1" source="5">
                    <mxGeometry relative="1" as="geometry">
                        <mxPoint x="480" y="369.9999999999999" as="targetPoint"/>
                    </mxGeometry>
                </mxCell>
                <mxCell id="5" value="Physical &lt;br&gt;Planner" style="rounded=0;whiteSpace=wrap;html=1;fontColor=#000000;" vertex="1" parent="1">
                    <mxGeometry x="360" y="340" width="80" height="60" as="geometry"/>
                </mxCell>
                <mxCell id="9" style="edgeStyle=none;html=1;exitX=1;exitY=0.5;exitDx=0;exitDy=0;entryX=0;entryY=0.5;entryDx=0;entryDy=0;fontColor=#000000;" edge="1" parent="1" source="7" target="3">
                    <mxGeometry relative="1" as="geometry"/>
                </mxCell>
                <mxCell id="7" value="Binder" style="rounded=0;whiteSpace=wrap;html=1;fontColor=#000000;" vertex="1" parent="1">
                    <mxGeometry x="150" y="340" width="70" height="60" as="geometry"/>
                </mxCell>
                <mxCell id="19" style="edgeStyle=none;html=1;exitX=0.75;exitY=1;exitDx=0;exitDy=0;entryX=0.75;entryY=0;entryDx=0;entryDy=0;fontColor=#000000;" edge="1" parent="1" target="3">
                    <mxGeometry relative="1" as="geometry">
                        <mxPoint x="310" y="310" as="sourcePoint"/>
                    </mxGeometry>
                </mxCell>
                <mxCell id="24" style="edgeStyle=none;html=1;exitX=0.5;exitY=0;exitDx=0;exitDy=0;entryX=0.5;entryY=1;entryDx=0;entryDy=0;fontColor=#000000;" edge="1" parent="1" source="23" target="7">
                    <mxGeometry relative="1" as="geometry"/>
                </mxCell>
                <mxCell id="23" value="Catalogue" style="rounded=0;whiteSpace=wrap;html=1;fontColor=#000000;" vertex="1" parent="1">
                    <mxGeometry x="150" y="430" width="70" height="60" as="geometry"/>
                </mxCell>
                <mxCell id="26" value="optimizer" style="rounded=0;whiteSpace=wrap;html=1;horizontal=0;fontColor=#000000;" vertex="1" parent="1">
                    <mxGeometry x="250" y="240" width="30" height="80" as="geometry"/>
                </mxCell>
                <mxCell id="30" value="" style="edgeStyle=none;html=1;fontColor=#000000;" edge="1" parent="1" source="29">
                    <mxGeometry relative="1" as="geometry">
                        <mxPoint x="354.2857142857142" y="320" as="targetPoint"/>
                    </mxGeometry>
                </mxCell>
                <mxCell id="29" value="Rule Based" style="rounded=0;whiteSpace=wrap;html=1;horizontal=0;rotation=90;fontColor=#000000;" vertex="1" parent="1">
                    <mxGeometry x="300" y="260" width="40" height="80" as="geometry"/>
                </mxCell>
                <mxCell id="31" value="Expression simplification, constant folding, common subexpression elimination, regex optimisation&amp;nbsp;" style="text;html=1;strokeColor=none;fillColor=none;align=left;verticalAlign=middle;whiteSpace=wrap;rounded=0;fontSize=8;fontStyle=2;fontColor=#000000;" vertex="1" parent="1">
                    <mxGeometry x="370" y="285" width="110" height="30" as="geometry"/>
                </mxCell>
                <mxCell id="32" value="Join reordering, operator pushdown/pullup,&amp;nbsp;" style="text;html=1;strokeColor=none;fillColor=none;align=left;verticalAlign=middle;whiteSpace=wrap;rounded=0;fontSize=8;fontStyle=2;fontColor=#000000;" vertex="1" parent="1">
                    <mxGeometry x="370" y="245" width="110" height="30" as="geometry"/>
                </mxCell>
                <mxCell id="28" value="Cost Based" style="rounded=0;whiteSpace=wrap;html=1;horizontal=0;rotation=90;fontColor=#000000;" vertex="1" parent="1">
                    <mxGeometry x="300" y="220" width="40" height="80" as="geometry"/>
                </mxCell>
                <mxCell id="33" value="Semantic analysis of parsed queries" style="text;html=1;strokeColor=none;fillColor=none;align=center;verticalAlign=middle;whiteSpace=wrap;rounded=0;fontSize=8;fontStyle=2;fontColor=#000000;" vertex="1" parent="1">
                    <mxGeometry x="140" y="310" width="90" height="30" as="geometry"/>
                </mxCell>
                <mxCell id="35" value="Execution Engine" style="text;html=1;strokeColor=none;fillColor=none;align=center;verticalAlign=middle;whiteSpace=wrap;rounded=0;fontSize=12;fontColor=#000000;" vertex="1" parent="1">
                    <mxGeometry x="490" y="240" width="100" height="30" as="geometry"/>
                </mxCell>
                <mxCell id="36" value="A stripped down derivation of the postgres libpq_query parser&amp;nbsp;" style="text;html=1;strokeColor=none;fillColor=none;align=center;verticalAlign=middle;whiteSpace=wrap;rounded=0;fontSize=8;fontStyle=2;fontColor=#000000;" vertex="1" parent="1">
                    <mxGeometry x="30" y="400" width="100" height="50" as="geometry"/>
                </mxCell>
                <mxCell id="40" style="edgeStyle=orthogonalEdgeStyle;rounded=0;html=1;exitX=0.5;exitY=1;exitDx=0;exitDy=0;entryX=0;entryY=0.5;entryDx=0;entryDy=0;fontSize=9;fontColor=#000000;" edge="1" parent="1" source="37" target="7">
                    <mxGeometry relative="1" as="geometry"/>
                </mxCell>
                <mxCell id="37" value="Parse Tree" style="rounded=0;whiteSpace=wrap;html=1;rotation=-90;fontSize=9;fontColor=#000000;" vertex="1" parent="1">
                    <mxGeometry x="87.5" y="362.5" width="60" height="15" as="geometry"/>
                </mxCell>
                <mxCell id="39" style="edgeStyle=orthogonalEdgeStyle;html=1;exitX=0;exitY=0.5;exitDx=0;exitDy=0;entryX=1;entryY=0.5;entryDx=0;entryDy=0;fontSize=9;rounded=0;fontColor=#000000;" edge="1" parent="1" source="38" target="37">
                    <mxGeometry relative="1" as="geometry"/>
                </mxCell>
                <mxCell id="38" value="Converts from lib_pq query tree to duckDB representation to limit dependence" style="text;html=1;strokeColor=none;fillColor=none;align=center;verticalAlign=middle;whiteSpace=wrap;rounded=0;fontSize=8;fontStyle=2;fontColor=#000000;" vertex="1" parent="1">
                    <mxGeometry x="135" y="270" width="110" height="40" as="geometry"/>
                </mxCell>
                <mxCell id="42" style="edgeStyle=orthogonalEdgeStyle;rounded=0;html=1;exitX=0.5;exitY=0;exitDx=0;exitDy=0;entryX=0.5;entryY=1;entryDx=0;entryDy=0;fontSize=9;fontColor=#000000;" edge="1" parent="1" source="41" target="3">
                    <mxGeometry relative="1" as="geometry"/>
                </mxCell>
                <mxCell id="41" value="Stored Data Statistics" style="text;html=1;strokeColor=none;fillColor=none;align=center;verticalAlign=middle;whiteSpace=wrap;rounded=0;fontSize=12;fontStyle=0;fontColor=#000000;" vertex="1" parent="1">
                    <mxGeometry x="245" y="420" width="90" height="40" as="geometry"/>
                </mxCell>
                <mxCell id="43" value="An Interpreter was chosen instead of using JIT compilation to make the database more portable &amp;amp; limit dependencies. JIT would have required an extensive custom implementation, or bundling large parts of LLVM." style="text;html=1;strokeColor=none;fillColor=none;align=center;verticalAlign=middle;whiteSpace=wrap;rounded=0;fontSize=8;fontStyle=2;fontColor=#000000;" vertex="1" parent="1">
                    <mxGeometry x="335" y="412.5" width="140" height="55" as="geometry"/>
                </mxCell>
                <mxCell id="46" value="Interpreter" style="rounded=0;whiteSpace=wrap;html=1;fontColor=#000000;" vertex="1" parent="1">
                    <mxGeometry x="490" y="330" width="100" height="120" as="geometry"/>
                </mxCell>
                <mxCell id="49" value="Operator Implementations" style="rounded=0;whiteSpace=wrap;html=1;fontColor=#000000;" vertex="1" parent="1">
                    <mxGeometry x="490" y="275" width="100" height="47.5" as="geometry"/>
                </mxCell>
                <mxCell id="66" style="edgeStyle=orthogonalEdgeStyle;rounded=0;html=1;exitX=0.5;exitY=1;exitDx=0;exitDy=0;entryX=0.5;entryY=0;entryDx=0;entryDy=0;fontSize=12;fontColor=#000000;" edge="1" parent="1" source="53" target="2">
                    <mxGeometry relative="1" as="geometry"/>
                </mxCell>
                <mxCell id="67" style="edgeStyle=orthogonalEdgeStyle;rounded=0;html=1;exitX=0.25;exitY=1;exitDx=0;exitDy=0;entryX=0.25;entryY=0;entryDx=0;entryDy=0;fontSize=12;fontColor=#000000;" edge="1" parent="1" source="53" target="2">
                    <mxGeometry relative="1" as="geometry"/>
                </mxCell>
                <mxCell id="68" style="edgeStyle=orthogonalEdgeStyle;rounded=0;html=1;exitX=0.75;exitY=1;exitDx=0;exitDy=0;entryX=0.75;entryY=0;entryDx=0;entryDy=0;fontSize=12;fontColor=#000000;" edge="1" parent="1" source="53" target="2">
                    <mxGeometry relative="1" as="geometry"/>
                </mxCell>
                <mxCell id="53" value="DuckDB &lt;br&gt;SQL" style="rounded=0;whiteSpace=wrap;html=1;fontSize=12;fontColor=#000000;" vertex="1" parent="1">
                    <mxGeometry x="40" y="240" width="70" height="60" as="geometry"/>
                </mxCell>
                <mxCell id="79" value="" style="rounded=0;whiteSpace=wrap;html=1;fontColor=#000000;" vertex="1" parent="1">
                    <mxGeometry x="310" y="490" width="290" height="80" as="geometry"/>
                </mxCell>
                <mxCell id="80" value="String&lt;br&gt;Heap" style="rounded=0;whiteSpace=wrap;html=1;fontColor=#000000;" vertex="1" parent="1">
                    <mxGeometry x="525" y="518" width="70" height="45" as="geometry"/>
                </mxCell>
                <mxCell id="81" value="Tables" style="rounded=0;whiteSpace=wrap;html=1;fontColor=#000000;" vertex="1" parent="1">
                    <mxGeometry x="315" y="518" width="210" height="45" as="geometry"/>
                </mxCell>
                <mxCell id="89" style="edgeStyle=orthogonalEdgeStyle;rounded=0;html=1;exitX=0;exitY=0.5;exitDx=0;exitDy=0;entryX=1.016;entryY=0.598;entryDx=0;entryDy=0;entryPerimeter=0;fontSize=13;fontColor=#000000;" edge="1" parent="1" source="82" target="84">
                    <mxGeometry relative="1" as="geometry"/>
                </mxCell>
                <mxCell id="82" value="Storage&lt;br&gt;Manager" style="rounded=0;whiteSpace=wrap;html=1;fontColor=#000000;" vertex="1" parent="1">
                    <mxGeometry x="140" y="514" width="110" height="55" as="geometry"/>
                </mxCell>
                <mxCell id="83" value="" style="endArrow=classic;html=1;rounded=0;fontSize=8;fontColor=#000000;" edge="1" parent="1">
                    <mxGeometry width="50" height="50" relative="1" as="geometry">
                        <mxPoint x="539.8" y="460" as="sourcePoint"/>
                        <mxPoint x="539.8" y="490" as="targetPoint"/>
                    </mxGeometry>
                </mxCell>
                <mxCell id="84" value="&lt;font style=&quot;font-size: 13px;&quot;&gt;.db File&lt;/font&gt;" style="shape=note;whiteSpace=wrap;html=1;backgroundOutline=1;darkOpacity=0.05;fontSize=8;fontColor=#000000;size=20;" vertex="1" parent="1">
                    <mxGeometry x="30" y="500" width="70" height="70" as="geometry"/>
                </mxCell>
                <mxCell id="86" value="Using a duckDB specific format,versioned but not yet stabilised" style="text;html=1;strokeColor=none;fillColor=none;align=center;verticalAlign=middle;whiteSpace=wrap;rounded=0;fontSize=8;fontStyle=2;fontColor=#000000;" vertex="1" parent="1">
                    <mxGeometry x="25" y="450" width="100" height="55" as="geometry"/>
                </mxCell>
                <mxCell id="87" value="Buffer Manager" style="text;html=1;strokeColor=none;fillColor=none;align=center;verticalAlign=middle;whiteSpace=wrap;rounded=0;fontSize=13;fontColor=#000000;" vertex="1" parent="1">
                    <mxGeometry x="320" y="494" width="280" height="20" as="geometry"/>
                </mxCell>
                <mxCell id="90" value="" style="endArrow=classic;html=1;rounded=0;fontSize=13;fontColor=#000000;" edge="1" parent="1">
                    <mxGeometry width="50" height="50" relative="1" as="geometry">
                        <mxPoint x="310" y="541.36" as="sourcePoint"/>
                        <mxPoint x="250" y="541.36" as="targetPoint"/>
                    </mxGeometry>
                </mxCell>
            </root>
        </mxGraphModel>
    </diagram>
</mxfile>